# xmcd CD database file generated by libcdaudio 0.99.6
# 
# Track frame offsets:
#       182
#       16925
#       33177
#       52532
#       68672
#       86502
#       107695
#       129667
#       146680
#       161217
#       177820
#       192945
#       215680
# 
# Disc length: 3036 seconds
# 
# Revision: 3
# Processed by: cddbd v1.4PL0 Copyright (c) Steve Scherf et al.
# Submitted via: libcdaudio 0.99.6
# 
DISCID=aa0bda0d
DTITLE=Jake Andrews - Time To Burn
DYEAR=1999
DGENRE=Blues
TTITLE0=Time To Burn
TTITLE1=Cry Baby
TTITLE2=The Hard Way
TTITLE3=Just You and Me
TTITLE4=You've Got To Know
TTITLE5=I Don't Wanna Go Home
TTITLE6=It All Pass Me By
TTITLE7=Lover To Cry
TTITLE8=Nobody's Fault But Mine
TTITLE9=I'm Glad For Your Sake (But Sorry For Mine)
TTITLE10=Moment To Love
TTITLE11=Drivin' Wheel
TTITLE12=Too Sorry
EXTD=
EXTT0=
EXTT1=
EXTT2=
EXTT3=
EXTT4=
EXTT5=
EXTT6=
EXTT7=
EXTT8=
EXTT9=
EXTT10=
EXTT11=
EXTT12=
PLAYORDER=
